<?xml version="1.0" encoding="UTF-8"?>
<svg id="Livello_1" data-name="Livello 1" xmlns="http://www.w3.org/2000/svg" viewBox="0 0 1874.71 485.55">
  <defs>
    <style>
      .cls-1 {
        fill: #fff;
      }
    </style>
  </defs>
  <g>
    <polygon class="cls-1" points="365.68 131.23 365.68 187.71 365.68 187.71 365.68 297.84 270.3 352.9 174.93 297.84 174.93 187.71 270.3 132.65 314.12 157.95 314.12 101.47 270.3 76.17 126.02 159.47 126.02 326.08 270.3 409.38 414.59 326.08 414.59 159.47 365.68 131.23"/>
    <polygon class="cls-1" points="226.49 217.48 226.49 268.07 270.3 293.37 314.12 268.07 314.12 242.78 314.12 217.48 270.3 192.19 226.49 217.48"/>
  </g>
  <g>
    <path class="cls-1" d="M670.83,342.48h-33.82v-21.92h-.63c-4.81,9.4-11.8,16.13-20.98,20.2-9.19,4.07-18.9,6.11-29.12,6.11-12.74,0-23.85-2.25-33.35-6.73-9.5-4.49-17.38-10.59-23.64-18.32-6.26-7.72-10.96-16.86-14.09-27.4-3.13-10.54-4.7-21.87-4.7-33.98,0-14.61,1.98-27.25,5.95-37.89,3.96-10.65,9.24-19.42,15.81-26.31,6.58-6.89,14.09-11.95,22.55-15.19,8.46-3.23,17.07-4.85,25.84-4.85,5.01,0,10.12.47,15.35,1.41,5.22.94,10.23,2.46,15.03,4.54,4.8,2.09,9.24,4.75,13.31,7.99s7.46,7.05,10.18,11.43h.63v-82.68h35.7v223.6h-.02ZM546.19,263.25c0,6.89.89,13.68,2.66,20.36,1.77,6.68,4.49,12.63,8.14,17.85s8.3,9.4,13.94,12.53,12.32,4.7,20.04,4.7,14.77-1.67,20.51-5.01,10.44-7.72,14.09-13.15,6.37-11.53,8.14-18.32c1.77-6.78,2.66-13.73,2.66-20.83,0-17.95-4.02-31.94-12.06-41.96s-18.95-15.03-32.73-15.03c-8.35,0-15.4,1.72-21.14,5.17s-10.44,7.94-14.09,13.47c-3.66,5.53-6.26,11.8-7.83,18.79-1.57,7-2.35,14.15-2.35,21.45l.02-.02Z"/>
    <path class="cls-1" d="M737.53,270.76c0,6.26.89,12.32,2.66,18.16,1.77,5.85,4.43,10.96,7.99,15.34,3.55,4.38,8.03,7.88,13.47,10.49,5.43,2.61,11.9,3.92,19.42,3.92,10.44,0,18.84-2.24,25.21-6.73,6.37-4.49,11.12-11.22,14.25-20.2h33.82c-1.88,8.77-5.12,16.6-9.71,23.49-4.59,6.89-10.13,12.68-16.6,17.38s-13.73,8.25-21.77,10.65c-8.04,2.4-16.44,3.6-25.21,3.6-12.74,0-24.01-2.09-33.82-6.26-9.82-4.17-18.11-10.02-24.9-17.54-6.79-7.52-11.9-16.49-15.35-26.93-3.44-10.44-5.17-21.92-5.17-34.45,0-11.48,1.83-22.39,5.48-32.73,3.65-10.33,8.87-19.42,15.66-27.25,6.78-7.83,14.98-14.04,24.58-18.63,9.6-4.59,20.46-6.89,32.57-6.89,12.73,0,24.16,2.66,34.29,7.99,10.12,5.32,18.53,12.37,25.21,21.14s11.53,18.84,14.56,30.22c3.02,11.38,3.81,23.13,2.35,35.23h-119,.01ZM820.84,247.28c-.42-5.64-1.62-11.06-3.6-16.29-1.99-5.22-4.7-9.76-8.14-13.62s-7.62-6.99-12.53-9.4c-4.91-2.4-10.39-3.6-16.44-3.6s-11.95,1.1-17.07,3.29c-5.12,2.19-9.5,5.22-13.15,9.08-3.66,3.87-6.58,8.41-8.77,13.62-2.19,5.22-3.4,10.86-3.6,16.91h83.3Z"/>
    <path class="cls-1" d="M883.79,180.57h33.82v23.8l.63.63c5.43-8.97,12.53-16.02,21.3-21.14,8.77-5.11,18.48-7.67,29.12-7.67,17.74,0,31.73,4.59,41.96,13.78,10.23,9.19,15.35,22.97,15.35,41.34v111.18h-35.7v-101.78c-.42-12.73-3.13-21.97-8.14-27.72-5.01-5.74-12.84-8.61-23.49-8.61-6.06,0-11.48,1.1-16.28,3.29-4.81,2.19-8.88,5.22-12.21,9.08-3.34,3.87-5.95,8.41-7.83,13.62-1.88,5.22-2.82,10.76-2.82,16.6v95.52h-35.7v-161.91h0Z"/>
    <path class="cls-1" d="M1064.48,118.87h35.7v127.15l64.51-65.45h43.84l-62.01,59.5,67.96,102.41h-43.53l-49.48-78.61-21.3,20.67v57.94h-35.7V118.87h.01Z"/>
    <path class="cls-1" d="M1231.71,118.87h35.7v82.99h.63c4.38-7.31,10.91-13.41,19.57-18.32,8.66-4.9,18.32-7.36,28.97-7.36,17.74,0,31.73,4.59,41.96,13.78s15.35,22.97,15.35,41.34v111.18h-35.7v-101.78c-.42-12.73-3.13-21.97-8.14-27.72-5.01-5.74-12.84-8.61-23.49-8.61-6.06,0-11.48,1.1-16.28,3.29-4.81,2.19-8.88,5.22-12.21,9.08-3.34,3.87-5.95,8.41-7.83,13.62-1.88,5.22-2.82,10.76-2.82,16.6v95.52h-35.7V118.87h-.01Z"/>
    <path class="cls-1" d="M1553.65,342.48h-35.08v-22.55h-.63c-4.38,8.14-10.91,14.67-19.57,19.57-8.67,4.9-17.49,7.36-26.46,7.36-21.3,0-36.69-5.27-46.19-15.82-9.5-10.54-14.25-26.46-14.25-47.76v-102.72h35.7v99.28c0,14.2,2.71,24.22,8.14,30.06,5.43,5.85,13.05,8.77,22.86,8.77,7.52,0,13.78-1.15,18.79-3.45,5.01-2.29,9.08-5.37,12.21-9.24,3.13-3.86,5.37-8.5,6.73-13.94,1.36-5.43,2.04-11.27,2.04-17.54v-93.95h35.7v161.93Z"/>
    <path class="cls-1" d="M1592.16,118.87h35.7v82.68h.63c2.51-3.96,5.53-7.52,9.08-10.65,3.55-3.13,7.46-5.79,11.74-7.99,4.28-2.19,8.77-3.86,13.47-5.01s9.34-1.72,13.94-1.72c12.73,0,23.85,2.25,33.35,6.73,9.5,4.49,17.38,10.65,23.64,18.48s10.96,16.97,14.09,27.4c3.13,10.44,4.7,21.61,4.7,33.51,0,10.86-1.41,21.4-4.23,31.63s-7.1,19.26-12.84,27.09-13,14.09-21.77,18.79-19.1,7.05-31,7.05c-5.43,0-10.91-.37-16.44-1.1-5.53-.73-10.8-2.14-15.82-4.23s-9.55-4.8-13.62-8.14c-4.07-3.34-7.47-7.72-10.18-13.15h-.63v22.24h-33.82V118.87h.01ZM1716.81,261.68c0-7.31-.94-14.41-2.82-21.3s-4.7-13-8.46-18.32-8.46-9.6-14.09-12.84c-5.64-3.23-12.11-4.85-19.42-4.85-15.03,0-26.36,5.22-33.98,15.66s-11.43,24.33-11.43,41.65c0,8.14.99,15.71,2.98,22.71,1.98,7,4.96,13,8.93,18.01,3.96,5.01,8.71,8.98,14.25,11.9,5.53,2.93,11.95,4.38,19.26,4.38,8.14,0,15.03-1.67,20.67-5.01s10.28-7.67,13.94-13c3.65-5.32,6.26-11.38,7.83-18.16s2.35-13.73,2.35-20.83h-.01Z"/>
  </g>
</svg>